<?xml version="1.0" standalone="no"?>
<!DOCTYPE svg PUBLIC "-//W3C//DTD SVG 20010904//EN"
 "http://www.w3.org/TR/2001/REC-SVG-20010904/DTD/svg10.dtd">
<svg version="1.0" xmlns="http://www.w3.org/2000/svg"
 width="330.000000pt" height="330.000000pt" viewBox="0 0 330.000000 330.000000"
 preserveAspectRatio="xMidYMid meet">
<metadata>
Created by potrace 1.11, written by Peter Selinger 2001-2013
</metadata>
<g transform="translate(0.000000,330.000000) scale(0.100000,-0.100000)"
fill="#000000" stroke="none">
<path d="M0 1735 l0 -1565 77 81 c165 172 359 318 533 401 101 48 101 48 94
138 -16 187 54 345 185 418 l40 23 25 -83 c14 -46 34 -121 46 -167 12 -46 34
-110 51 -142 35 -71 35 -75 5 -83 -22 -5 -51 -32 -141 -130 -41 -45 -155 -213
-155 -229 0 -6 -6 -18 -14 -26 -17 -20 -77 -163 -109 -261 -14 -41 -29 -83
-32 -92 -6 -16 1 -18 78 -18 l85 0 13 33 c7 17 30 58 51 90 21 32 38 62 38 66
0 5 7 14 15 21 40 33 -9 41 -68 11 -33 -17 -37 -17 -37 -2 0 22 28 64 99 146
33 39 64 79 70 90 5 11 17 38 26 60 47 109 106 205 125 205 15 0 41 -90 49
-167 11 -98 34 -166 74 -218 49 -65 53 -72 31 -52 -17 14 -23 15 -27 4 -7 -19
8 -41 22 -33 6 4 10 3 9 -3 -4 -14 58 -79 93 -97 16 -8 29 -19 29 -23 0 -5 13
-12 29 -16 16 -3 35 -13 42 -21 7 -8 20 -12 30 -9 29 9 24 -21 -6 -41 -14 -9
-25 -23 -25 -30 0 -19 39 -18 60 1 10 9 24 13 34 9 14 -5 15 -9 4 -15 -7 -5
297 -9 692 -8 l705 0 1 31 c1 16 7 34 15 39 12 8 12 11 -1 19 -11 7 -17 5 -22
-8 -4 -9 -7 -12 -7 -5 -1 6 -4 19 -8 29 -5 13 -3 16 10 11 9 -3 19 -2 22 3 4
6 0 10 -9 10 -19 0 -26 20 -13 45 8 16 7 18 -4 8 -20 -20 -29 -15 -20 10 5 12
14 21 20 20 6 -2 11 9 11 23 0 19 4 25 15 20 8 -3 15 -1 15 4 0 5 -9 12 -20
15 -23 7 -27 35 -5 35 8 0 15 5 15 11 0 15 28 41 38 35 5 -3 9 1 9 9 0 8 -6
15 -14 15 -7 0 -13 9 -13 20 0 11 5 20 10 20 6 0 10 -4 10 -10 0 -5 13 -24 29
-43 19 -21 27 -38 21 -46 -4 -8 -13 -10 -19 -6 -9 5 -9 11 1 23 11 13 11 14
-2 10 -16 -5 -17 -21 -4 -52 5 -14 4 -17 -4 -12 -7 4 -12 4 -12 -1 0 -4 12
-13 26 -20 21 -10 25 -10 20 2 -3 8 1 33 9 56 14 39 14 41 -6 46 -16 4 -19 11
-14 27 15 50 14 66 -7 66 -14 0 -18 5 -14 16 3 9 6 17 6 20 0 2 7 1 15 -2 8
-4 15 -1 15 5 0 6 -7 11 -15 11 -13 0 -13 4 2 28 10 15 22 30 28 34 6 4 2 13
-10 23 -11 9 -14 14 -7 10 8 -4 12 2 12 19 0 13 6 31 13 38 7 7 29 39 50 71
21 31 42 57 46 57 5 0 6 20 3 45 -2 25 -2 45 1 45 2 0 24 -9 48 -20 24 -11 50
-20 57 -20 9 0 12 253 12 1230 l0 1230 -414 0 -414 0 64 -127 c35 -70 64 -135
64 -145 0 -10 8 -37 19 -61 20 -46 30 -80 68 -237 14 -58 30 -114 36 -125 6
-11 12 -29 13 -40 2 -11 13 -56 24 -100 34 -136 82 -360 100 -475 17 -102 50
-236 104 -415 14 -44 27 -93 31 -108 3 -16 35 -59 75 -99 39 -40 70 -76 70
-81 0 -6 7 -19 17 -29 15 -17 15 -18 -1 -18 -9 0 -19 7 -22 15 -4 8 -11 15
-18 15 -15 0 -46 36 -39 44 4 3 0 6 -8 6 -8 0 -19 10 -24 23 -6 12 -17 22 -25
22 -8 0 -15 9 -15 19 0 11 -6 21 -14 24 -9 3 -11 -2 -7 -19 3 -13 3 -18 0 -11
-3 6 -22 12 -42 12 -28 0 -33 -3 -22 -10 12 -8 13 -11 1 -19 -8 -5 -11 -16 -7
-29 7 -21 -8 -40 -19 -23 -8 14 -35 2 -35 -17 0 -13 -3 -12 -20 3 -11 10 -20
13 -20 7 0 -6 -7 -9 -15 -6 -12 5 -13 10 -4 20 6 8 10 14 8 15 -2 0 -12 2 -21
4 -29 5 -78 29 -78 38 0 5 -5 5 -10 2 -6 -4 -8 -10 -5 -15 3 -5 1 -19 -5 -31
-9 -15 -15 -18 -23 -10 -7 7 -6 15 4 27 12 15 12 16 -9 10 -16 -5 -24 -3 -28
8 -3 9 -10 16 -15 16 -14 0 -11 -28 4 -33 6 -2 -3 -6 -21 -9 -22 -3 -29 -1
-22 6 19 19 11 36 -18 36 -21 0 -30 7 -40 30 -8 16 -11 34 -7 39 3 6 -3 15
-13 20 -11 6 -25 25 -32 43 -7 18 -18 47 -25 63 -48 109 -59 135 -75 180 -51
142 -75 191 -155 320 -48 77 -98 154 -111 172 -13 17 -24 35 -24 40 0 18 -100
174 -141 219 -157 174 -308 299 -424 353 -76 36 -176 59 -285 65 l-85 5 55
-13 55 -12 -100 -6 c-65 -4 -120 -14 -156 -27 -31 -12 -63 -19 -70 -16 -8 3
-48 -15 -89 -40 -107 -65 -109 -66 -153 -112 -22 -24 -43 -43 -48 -43 -17 0
-9 20 19 47 15 16 47 53 72 83 24 30 49 57 55 59 5 2 59 53 119 113 60 59 112
108 115 108 3 0 22 16 41 36 19 20 54 49 77 65 41 29 113 105 113 121 0 4
-281 8 -625 8 l-625 0 0 -1565z m1287 1159 c-3 -3 -12 -4 -19 -1 -8 3 -5 6 6
6 11 1 17 -2 13 -5z m-358 -47 c-2 -1 -13 -9 -24 -17 -19 -14 -19 -14 -6 3 7
9 18 17 24 17 6 0 8 -1 6 -3z m-309 -204 c-1 -11 -71 -85 -76 -81 -5 6 58 88
68 88 4 0 8 -3 8 -7z m-120 -243 c0 -5 -5 -10 -11 -10 -5 0 -7 5 -4 10 3 6 8
10 11 10 2 0 4 -4 4 -10z m960 -144 c0 -5 6 -17 14 -25 19 -23 35 -76 27 -90
-19 -29 -75 -60 -100 -54 -35 8 -61 32 -61 55 0 33 59 146 77 150 17 4 42 -17
43 -36z m411 -28 c11 -21 11 -22 -4 -9 -10 7 -17 17 -17 22 0 15 9 10 21 -13z
m3 -44 c3 -8 2 -12 -4 -9 -6 3 -10 -1 -10 -9 0 -9 7 -16 15 -16 21 0 19 -13
-5 -30 -18 -13 -18 -15 -4 -32 11 -11 14 -24 9 -35 -14 -33 -11 -68 7 -101 10
-18 16 -37 13 -43 -4 -5 1 -19 9 -31 9 -12 16 -37 16 -55 0 -17 5 -44 11 -60
16 -42 19 -146 5 -186 -6 -19 -23 -45 -36 -56 -14 -11 -19 -20 -12 -21 18 0
15 -20 -4 -20 -10 0 -14 -6 -10 -15 3 -8 2 -15 -2 -16 -28 -3 -44 -10 -71 -35
-18 -15 -44 -30 -58 -32 -15 -2 -49 -19 -75 -38 -46 -34 -52 -36 -151 -40
l-103 -4 -35 35 c-18 19 -39 35 -46 35 -7 0 -10 14 -9 40 3 31 -1 41 -15 45
-10 4 -16 12 -13 20 3 8 -6 27 -20 42 -14 15 -26 34 -26 41 0 7 -7 24 -16 37
-31 47 -32 431 -1 461 4 4 7 17 7 28 0 15 3 17 9 8 4 -8 10 -12 12 -11 2 2 14
-4 27 -12 19 -14 22 -22 16 -45 -4 -16 -13 -38 -20 -49 -38 -61 -59 -249 -34
-307 34 -81 90 -138 90 -92 0 10 -3 14 -7 11 -10 -11 -33 13 -33 34 0 17 3 18
22 7 12 -7 33 -26 48 -42 23 -25 31 -28 63 -22 23 4 37 13 37 21 0 8 5 15 10
15 6 0 10 -7 10 -16 0 -10 6 -14 15 -10 8 3 15 1 15 -4 0 -19 17 -10 30 15 14
26 5 50 -9 26 -7 -10 -10 -9 -16 8 -6 19 -14 21 -81 21 -73 0 -75 1 -69 23 11
33 14 35 90 48 117 22 295 15 296 -11 0 -8 5 -4 10 9 7 18 5 28 -7 42 -9 10
-20 17 -24 14 -4 -2 -55 2 -113 9 -87 10 -112 10 -137 0 -17 -8 -44 -11 -60
-8 -16 4 -51 -1 -80 -11 -40 -13 -54 -14 -65 -5 -26 21 -17 51 28 93 23 22 41
44 39 48 -1 5 4 9 12 9 16 0 29 41 20 64 -8 20 30 35 82 32 49 -3 89 -20 97
-40 4 -9 13 -16 22 -16 8 0 15 -4 15 -10 0 -5 9 -10 20 -10 14 0 20 -6 18 -17
-3 -18 1 -20 68 -22 22 -1 33 -7 37 -20 3 -14 11 -18 26 -14 14 3 21 1 21 -8
0 -8 9 -31 20 -52 11 -21 18 -43 14 -48 -3 -6 2 -19 12 -30 34 -38 45 27 20
124 -16 60 -38 105 -78 158 -16 20 -28 42 -28 50 0 8 -9 28 -21 44 -11 17 -26
42 -34 56 -14 26 -13 27 6 22 12 -4 25 0 30 8 8 12 11 12 19 -1 5 -8 10 -10
10 -4 0 10 33 20 101 33 4 0 10 -6 13 -15z m-114 -204 c0 -5 -7 -10 -15 -10
-16 0 -36 39 -28 53 6 10 43 -27 43 -43z m-803 -732 c-3 -7 -5 -2 -5 12 0 14
2 19 5 13 2 -7 2 -19 0 -25z m1673 -19 c0 -5 -7 -9 -15 -9 -15 0 -20 12 -9 23
8 8 24 -1 24 -14z m-1655 -9 c3 -5 1 -10 -4 -10 -6 0 -11 5 -11 10 0 6 2 10 4
10 3 0 8 -4 11 -10z m20 -57 c23 -55 29 -83 16 -83 -6 0 -11 5 -11 10 0 6 -9
29 -20 52 -17 35 -19 58 -5 58 3 0 12 -17 20 -37z m2210 -43 c3 -5 1 -10 -4
-10 -6 0 -11 5 -11 10 0 6 2 10 4 10 3 0 8 -4 11 -10z m-2141 -133 c1 -12 6
-30 11 -40 4 -10 4 -21 1 -24 -4 -4 -9 3 -13 15 -3 12 -10 22 -15 22 -6 0 -7
8 -4 17 4 9 2 19 -4 23 -6 4 -8 15 -4 24 6 17 8 17 16 2 5 -9 10 -26 12 -39z
m36 -82 c0 -8 -4 -15 -10 -15 -5 0 -7 7 -4 15 4 8 8 15 10 15 2 0 4 -7 4 -15z
m2030 0 c0 -8 -4 -15 -9 -15 -13 0 -22 16 -14 24 11 11 23 6 23 -9z m-115
-465 c3 -5 1 -10 -4 -10 -6 0 -11 5 -11 10 0 6 2 10 4 10 3 0 8 -4 11 -10z
m-45 -30 c0 -5 -4 -10 -10 -10 -5 0 -10 5 -10 10 0 6 5 10 10 10 6 0 10 -4 10
-10z m-33 -16 c14 -4 20 -11 16 -22 -5 -11 -3 -13 7 -7 8 5 11 3 8 -6 -3 -8
-13 -16 -22 -17 -12 -3 -17 1 -14 10 3 7 -4 21 -15 31 -21 18 -16 21 20 11z
m-87 -124 c0 -5 -4 -10 -10 -10 -5 0 -10 5 -10 10 0 6 5 10 10 10 6 0 10 -4
10 -10z m70 -30 c0 -5 -5 -10 -11 -10 -5 0 -7 5 -4 10 3 6 8 10 11 10 2 0 4
-4 4 -10z m-100 -70 c0 -5 -4 -10 -9 -10 -6 0 -13 5 -16 10 -3 6 1 10 9 10 9
0 16 -4 16 -10z m-100 -54 c0 -3 -4 -8 -10 -11 -5 -3 -10 -1 -10 4 0 6 5 11
10 11 6 0 10 -2 10 -4z m10 -30 c0 -3 -4 -8 -10 -11 -5 -3 -10 -1 -10 4 0 6 5
11 10 11 6 0 10 -2 10 -4z m185 -26 c3 -5 1 -10 -4 -10 -6 0 -11 5 -11 10 0 6
2 10 4 10 3 0 8 -4 11 -10z"/>
<path d="M1500 1540 c8 -5 20 -10 25 -10 6 0 3 5 -5 10 -8 5 -19 10 -25 10 -5
0 -3 -5 5 -10z"/>
<path d="M2430 2750 c0 -5 5 -10 11 -10 5 0 7 5 4 10 -3 6 -8 10 -11 10 -2 0
-4 -4 -4 -10z"/>
<path d="M2415 2720 c-3 -5 -1 -10 4 -10 6 0 11 5 11 10 0 6 -2 10 -4 10 -3 0
-8 -4 -11 -10z"/>
<path d="M2440 2716 c0 -2 7 -7 16 -10 8 -3 12 -2 9 4 -6 10 -25 14 -25 6z"/>
<path d="M2421 2674 c0 -11 3 -14 6 -6 3 7 2 16 -1 19 -3 4 -6 -2 -5 -13z"/>
<path d="M2440 2681 c0 -6 9 -17 21 -25 13 -9 18 -19 14 -27 -5 -8 -4 -10 3
-5 17 10 15 23 -8 46 -22 22 -30 25 -30 11z"/>
<path d="M2640 2617 c0 -8 -12 -30 -26 -47 -15 -17 -24 -34 -20 -37 3 -4 6 -1
6 5 0 6 9 13 19 17 19 6 39 60 27 72 -3 4 -6 -1 -6 -10z"/>
<path d="M2465 2600 c-4 -6 -11 -7 -17 -4 -6 4 -8 3 -5 -3 3 -5 0 -21 -8 -36
-8 -15 -10 -27 -5 -27 5 0 12 10 16 23 3 12 13 30 22 40 8 9 12 17 9 17 -3 0
-9 -5 -12 -10z"/>
<path d="M2343 2525 c2 -5 10 -10 17 -10 7 0 15 5 17 10 2 6 -6 11 -17 11 -11
0 -19 -5 -17 -11z"/>
<path d="M2621 2484 c-10 -12 -10 -19 -2 -27 8 -8 11 -8 11 0 0 6 7 19 16 27
11 12 12 16 2 16 -7 -1 -19 -8 -27 -16z"/>
<path d="M2310 2462 c0 -16 13 -20 35 -11 11 4 15 8 8 8 -6 1 -18 4 -27 7 -9
3 -16 1 -16 -4z"/>
<path d="M2380 2430 c-9 -17 -8 -20 10 -20 11 0 20 5 20 11 0 5 -4 7 -10 4 -5
-3 -10 -2 -10 4 0 5 6 12 13 14 9 4 9 6 0 6 -7 1 -17 -8 -23 -19z"/>
<path d="M2325 2410 c-3 -5 -1 -18 4 -28 7 -13 7 -22 -1 -30 -9 -9 -7 -12 10
-12 13 0 22 6 22 15 0 8 6 15 14 15 8 0 18 5 22 11 5 9 -1 10 -20 5 -34 -8
-51 1 -35 20 7 9 8 14 1 14 -6 0 -14 -4 -17 -10z"/>
<path d="M2450 2329 c0 -5 5 -7 10 -4 6 3 10 8 10 11 0 2 -4 4 -10 4 -5 0 -10
-5 -10 -11z"/>
<path d="M2415 2299 c6 -30 15 -37 15 -11 0 11 -4 23 -9 27 -6 3 -8 -4 -6 -16z"/>
<path d="M3089 328 c-1 -7 -3 -23 -4 -35 -1 -13 2 -23 6 -23 5 0 9 -5 9 -11 0
-5 -5 -7 -11 -3 -8 4 -7 0 1 -15 6 -12 16 -19 22 -15 6 4 8 -1 4 -14 -4 -12
-2 -23 5 -28 8 -4 9 -3 5 4 -4 7 -3 12 3 12 17 0 18 -24 3 -47 -13 -20 -13
-23 1 -23 17 0 31 -46 29 -100 -1 -25 1 -31 8 -20 7 12 12 12 22 2 13 -13 98
-17 98 -4 0 16 -18 34 -28 28 -7 -4 -8 3 -2 24 5 18 5 30 -1 30 -5 0 -9 8 -10
18 0 14 -2 14 -9 -3 l-8 -20 -6 20 c-4 11 -15 36 -25 55 -19 37 -34 84 -35
112 -1 20 -23 44 -32 35 -4 -4 -1 -13 5 -21 15 -17 1 -28 -19 -15 -13 8 -13 9
0 9 11 0 11 3 2 12 -7 7 -12 20 -12 30 0 20 -19 25 -21 6z m61 -108 c0 -5 -2
-10 -4 -10 -3 0 -8 5 -11 10 -3 6 -1 10 4 10 6 0 11 -4 11 -10z"/>
<path d="M240 264 c0 -8 5 -12 10 -9 6 4 8 11 5 16 -9 14 -15 11 -15 -7z"/>
<path d="M2986 245 c4 -8 8 -15 10 -15 2 0 4 7 4 15 0 8 -4 15 -10 15 -5 0 -7
-7 -4 -15z"/>
<path d="M3010 250 c0 -5 5 -10 11 -10 5 0 7 5 4 10 -3 6 -8 10 -11 10 -2 0
-4 -4 -4 -10z"/>
<path d="M216 210 c-3 -16 -9 -44 -12 -61 -5 -21 -2 -34 7 -40 12 -7 11 -9 -1
-9 -10 0 -20 -15 -26 -38 -13 -48 -8 -62 21 -62 21 0 24 6 30 69 4 39 4 75 0
80 -3 6 -2 11 3 11 5 0 9 18 9 40 0 48 -22 55 -31 10z"/>
<path d="M3140 61 c0 -6 4 -13 10 -16 6 -3 7 1 4 9 -7 18 -14 21 -14 7z"/>
</g>
</svg>
