<?xml version="1.0" encoding="UTF-8" standalone="no"?>
<!-- Created with Inkscape (http://www.inkscape.org/) -->

<svg
   xmlns:dc="http://purl.org/dc/elements/1.1/"
   xmlns:cc="http://creativecommons.org/ns#"
   xmlns:rdf="http://www.w3.org/1999/02/22-rdf-syntax-ns#"
   xmlns:svg="http://www.w3.org/2000/svg"
   xmlns="http://www.w3.org/2000/svg"
   xmlns:sodipodi="http://sodipodi.sourceforge.net/DTD/sodipodi-0.dtd"
   xmlns:inkscape="http://www.inkscape.org/namespaces/inkscape"
   width="784.21228"
   height="317.28799"
   id="svg2"
   version="1.1"
   inkscape:version="0.48.4 r9939"
   sodipodi:docname="Touchstone Television Print Logo 3.svg">
  <defs
     id="defs4">
    <clipPath
       id="clipPath5839">
      <path
         id="path5841"
         d="m 19,519.85 164.373,0 0,45.15 L 19,565 19,519.85 z"
         inkscape:connector-curvature="0" />
    </clipPath>
  </defs>
  <sodipodi:namedview
     id="base"
     pagecolor="#ffffff"
     bordercolor="#666666"
     borderopacity="1.0"
     inkscape:pageopacity="0.0"
     inkscape:pageshadow="2"
     inkscape:zoom="0.7"
     inkscape:cx="466.84282"
     inkscape:cy="175.23356"
     inkscape:document-units="px"
     inkscape:current-layer="layer1"
     showgrid="false"
     inkscape:window-width="1366"
     inkscape:window-height="706"
     inkscape:window-x="-8"
     inkscape:window-y="-8"
     inkscape:window-maximized="1"
     fit-margin-top="0"
     fit-margin-left="0"
     fit-margin-right="0"
     fit-margin-bottom="0" />
  <metadata
     id="metadata7">
    <rdf:RDF>
      <cc:Work
         rdf:about="">
        <dc:format>image/svg+xml</dc:format>
        <dc:type
           rdf:resource="http://purl.org/dc/dcmitype/StillImage" />
        <dc:title></dc:title>
      </cc:Work>
    </rdf:RDF>
  </metadata>
  <g
     inkscape:label="Layer 1"
     inkscape:groupmode="layer"
     id="layer1"
     transform="translate(140.05745,-416.9719)">
    <g
       id="layer1-1"
       transform="matrix(3.8746537,0,0,3.8746537,-1456.4909,-2065.5104)">
      <g
         id="g9823"
         transform="matrix(1.4600938,0,0,1.4600938,312.2159,156.33433)">
        <g
           id="g5835"
           transform="matrix(1.25,0,0,-1.25,-7.65625,1027.3622)">
          <g
             id="g5837"
             clip-path="url(#clipPath5839)">
            <g
               id="g5843"
               transform="translate(39.058899,519.8502)" />
            <g
               id="g5847"
               transform="translate(42.342194,540.92551)" />
            <g
               id="g5851"
               transform="translate(47.529602,541.5713)" />
            <g
               id="g5855"
               transform="translate(44.3125,555.093)" />
            <g
               id="g5859"
               transform="translate(49.197693,542.3508)" />
            <g
               id="g5863"
               transform="translate(71.073303,533.3304)">
              <path
                 style="fill:#8e8b78;fill-opacity:1;fill-rule:nonzero;stroke:none"
                 id="path5865"
                 d="m 0,0 c 0,-1.293 0,-1.678 1.448,-1.678 l 0,-0.275 -4.332,0 0,0.275 c 1.449,0 1.449,0.385 1.449,1.678 l 0,7.576 -1.526,0 c -1.279,0 -1.664,-0.77 -1.741,-1.725 l -0.268,0 0.106,2.391 8.293,0 0.105,-2.391 -0.267,0 C 3.19,6.806 2.805,7.576 1.526,7.576 L 0,7.576 0,0 z"
                 inkscape:connector-curvature="0" />
            </g>
            <g
               id="g5867"
               transform="translate(76.238205,538.0964)">
              <path
                 style="fill:#8e8b78;fill-opacity:1;fill-rule:nonzero;stroke:none"
                 id="path5869"
                 d="m 0,0 c -2.018,0 -3.341,-1.826 -3.341,-3.718 0,-1.845 1.277,-3.579 3.233,-3.579 2.434,0 3.418,2.226 3.418,3.81 C 3.31,-1.611 1.926,0 0,0 m -0.262,-0.519 c 1.71,0 2.172,-2.276 2.172,-3.614 0,-1.077 -0.262,-2.645 -1.664,-2.645 -1.71,0 -2.187,2.399 -2.187,3.721 0,1.969 0.924,2.538 1.679,2.538"
                 inkscape:connector-curvature="0" />
            </g>
            <g
               id="g5871"
               transform="translate(86.331802,532.82291)">
              <path
                 style="fill:#8e8b78;fill-opacity:1;fill-rule:nonzero;stroke:none"
                 id="path5873"
                 d="m 0,0 c 0,-1.046 0.323,-1.046 0.539,-1.046 0.169,0 0.369,0.061 0.523,0.123 l 0.108,-0.261 -2.078,-0.84 -0.338,0 0,1.455 c -0.677,-0.737 -1.323,-1.455 -2.338,-1.455 -1.138,0 -1.754,0.962 -1.754,2.255 l 0,3.354 c 0,0.938 -0.108,1.169 -1.139,1.2 l 0,0.275 2.386,0 0,-4.783 c 0,-0.862 0.369,-1.385 1.153,-1.385 0.63,0 1.276,0.554 1.692,0.985 l 0,3.708 c 0,0.938 -0.108,1.169 -1.138,1.2 l 0,0.275 L 0,5.06 0,0 z"
                 inkscape:connector-curvature="0" />
            </g>
            <g
               id="g5875"
               transform="translate(93.531998,533.6216)">
              <path
                 style="fill:#8e8b78;fill-opacity:1;fill-rule:nonzero;stroke:none"
                 id="path5877"
                 d="m 0,0 c -0.261,-1.431 -1.299,-2.822 -2.853,-2.822 -1.744,0 -2.934,1.56 -2.934,3.669 0,2.216 1.561,3.628 3.289,3.628 0.909,0 2.298,-0.596 2.298,-1.658 0,-0.401 -0.29,-0.631 -0.672,-0.631 -0.626,0 -0.794,0.323 -0.855,0.877 -0.046,0.6 -0.416,0.893 -1.018,0.893 -1.327,0 -1.852,-1.339 -1.852,-2.478 0,-1.324 0.679,-3.14 2.253,-3.14 1.106,0 1.778,0.815 2.129,1.77 L 0,0 z"
                 inkscape:connector-curvature="0" />
            </g>
            <g
               id="g5879"
               transform="translate(100.3501,532.3185)">
              <path
                 style="fill:#8e8b78;fill-opacity:1;fill-rule:nonzero;stroke:none"
                 id="path5881"
                 d="m 0,0 c 0,-0.908 0.354,-1.015 1.062,-1.031 l 0,-0.275 -3.364,0 0,0.275 c 0.704,0.016 1.056,0.123 1.056,1.031 l 0,3.185 c 0,1.523 -0.628,1.677 -1.086,1.677 -0.704,0 -1.224,-0.462 -1.729,-0.985 l 0,-3.877 c 0,-0.908 0.352,-1.015 1.055,-1.031 l 0,-0.275 -3.363,0 0,0.275 c 0.708,0.016 1.062,0.123 1.062,1.031 l 0,7.34 c 0,1.051 -0.323,1.051 -0.539,1.051 -0.169,0 -0.369,-0.062 -0.523,-0.124 l -0.108,0.263 2.078,0.851 0.338,0 0,-5.042 c 0.857,0.95 1.453,1.439 2.325,1.439 C -0.492,5.778 0,4.616 0,3.462 L 0,0 z"
                 inkscape:connector-curvature="0" />
            </g>
            <g
               id="g5883"
               transform="translate(106.1899,535.74699)">
              <path
                 style="fill:#8e8b78;fill-opacity:1;fill-rule:nonzero;stroke:none"
                 id="path5885"
                 d="m 0,0 -0.275,0 c -0.232,1.03 -0.649,1.892 -1.856,1.892 -0.552,0 -1.167,-0.308 -1.167,-0.939 0,-1.676 3.787,-1.46 3.787,-3.844 0,-1.261 -1.177,-2.057 -2.348,-2.057 -0.447,0 -0.94,0.107 -1.387,0.229 -0.092,0.031 -0.277,0.077 -0.385,0.077 -0.138,0 -0.246,-0.077 -0.277,-0.214 l -0.275,0 0,2.473 0.275,0 c 0.139,-1.077 0.958,-2.107 2.115,-2.107 0.629,0 1.182,0.369 1.182,1.046 0,1.799 -3.572,1.553 -3.572,3.736 0,1.261 0.901,2.058 2.129,2.058 0.322,0 0.568,-0.077 0.882,-0.156 0.186,-0.047 0.387,-0.126 0.572,-0.126 0.201,0 0.263,0.126 0.325,0.282 L 0,2.35 0,0 z"
                 inkscape:connector-curvature="0" />
            </g>
            <g
               id="g5887"
               transform="translate(110.9854,537.88271)">
              <path
                 style="fill:#8e8b78;fill-opacity:1;fill-rule:nonzero;stroke:none"
                 id="path5889"
                 d="m 0,0 0,-0.55 -1.616,0 0,-4.233 c 0,-0.631 0,-1.323 0.723,-1.323 0.339,0 0.693,0.292 0.801,0.615 l 0.307,0 c -0.277,-0.753 -0.907,-1.47 -1.769,-1.47 -0.493,0 -1.308,0.32 -1.308,1.64 l 0,4.771 -1.077,0 0,0.306 c 0.846,0.352 1.523,1.09 2.092,2.506 l 0.231,0 L -1.616,0 0,0 z"
                 inkscape:connector-curvature="0" />
            </g>
            <g
               id="g5891"
               transform="translate(114.8008,538.0964)">
              <path
                 style="fill:#8e8b78;fill-opacity:1;fill-rule:nonzero;stroke:none"
                 id="path5893"
                 d="m 0,0 c -2.018,0 -3.341,-1.826 -3.341,-3.718 0,-1.845 1.277,-3.579 3.233,-3.579 2.434,0 3.419,2.226 3.419,3.81 C 3.311,-1.611 1.926,0 0,0 m -0.262,-0.519 c 1.71,0 2.172,-2.276 2.172,-3.614 0,-1.077 -0.261,-2.645 -1.664,-2.645 -1.709,0 -2.187,2.399 -2.187,3.721 0,1.969 0.924,2.538 1.679,2.538"
                 inkscape:connector-curvature="0" />
            </g>
            <g
               id="g5895"
               transform="translate(120.8642,536.6572)">
              <path
                 style="fill:#8e8b78;fill-opacity:1;fill-rule:nonzero;stroke:none"
                 id="path5897"
                 d="m 0,0 c 0.857,0.951 1.453,1.439 2.325,1.439 1.243,0 1.736,-1.162 1.736,-2.316 l 0,-3.462 c 0,-0.907 0.354,-1.015 1.062,-1.031 l 0,-0.274 -3.364,0 0,0.274 c 0.704,0.016 1.055,0.124 1.055,1.031 l 0,3.185 C 2.814,0.369 2.187,0.523 1.728,0.523 1.025,0.523 0.505,0.062 0,-0.462 L 0,-4.339 C 0,-5.246 0.352,-5.354 1.055,-5.37 l 0,-0.274 -3.363,0 0,0.274 c 0.708,0.016 1.062,0.124 1.062,1.031 l 0,3.754 c 0,1.047 -0.324,1.047 -0.539,1.047 -0.169,0 -0.369,-0.062 -0.523,-0.123 L -2.416,0.6 -0.339,1.439 0,1.439 0,0 z"
                 inkscape:connector-curvature="0" />
            </g>
            <g
               id="g5899"
               transform="translate(132.10851,535.28751)">
              <path
                 style="fill:#8e8b78;fill-opacity:1;fill-rule:nonzero;stroke:none"
                 id="path5901"
                 d="m 0,0 c 0,1.659 -1.038,2.809 -2.621,2.809 -2.188,0 -3.18,-1.781 -3.18,-3.765 0,-2.111 1.315,-3.532 2.995,-3.532 1.554,0 2.546,1.298 2.806,2.716 l -0.229,0.154 c -0.351,-1.002 -0.947,-1.649 -2.053,-1.649 -1.68,0 -2.481,1.726 -2.481,3.267 L 0,0 z m -4.748,0.458 c 0.062,0.893 0.709,1.801 1.619,1.801 1.094,0 1.572,-0.846 1.572,-1.801 l -3.191,0 z"
                 inkscape:connector-curvature="0" />
            </g>
            <g
               id="g5903"
               transform="translate(139.3735,535.79131)" />
            <g
               id="g5907"
               transform="translate(146.6982,541.69929)" />
            <g
               id="g5911"
               transform="translate(154.7998,533.6216)" />
            <g
               id="g5915"
               transform="translate(159.1118,537.88271)" />
            <g
               id="g5919"
               transform="translate(165.59621,532.82291)" />
            <g
               id="g5923"
               transform="translate(168.9908,536.61571)" />
            <g
               id="g5927"
               transform="translate(177.6649,535.28751)" />
            <g
               id="g5931"
               transform="translate(182.8842,535.74699)" />
          </g>
        </g>
      </g>
    </g>
    <text
       xml:space="preserve"
       style="font-size:36px;font-style:normal;font-variant:normal;font-weight:normal;font-stretch:normal;text-align:start;line-height:0%;letter-spacing:0px;word-spacing:0px;writing-mode:lr-tb;text-anchor:start;fill:#000000;fill-opacity:1;stroke:none;font-family:Times New Roman;-inkscape-font-specification:'Times New Roman,'"
       x="177.14285"
       y="729.50507"
       id="text3453"
       sodipodi:linespacing="0%"><tspan
         sodipodi:role="line"
         id="tspan3455"
         x="177.14285"
         y="729.50507"></tspan></text>
    <path
       style="fill:#8e8b78;fill-opacity:1;fill-rule:nonzero;stroke:none"
       id="path5905"
       d="m 269.51765,660.35071 c 4.05209,0.86276 8.10418,1.61943 12.15627,1.61943 19.26334,0 22.38903,-14.12927 22.38903,-19.80077 0,-10.67826 -8.52848,-20.14727 -25.56423,-20.14727 l -29.36173,0 0,1.94472 c 10.23276,0 10.23276,2.72967 10.23276,11.88045 l 0,44.45981 c 0,9.16494 0,11.89461 -10.23276,11.89461 l 0,1.94473 30.67707,0 0,-1.94473 c -10.29641,0 -10.29641,-2.72967 -10.29641,-11.89461 l 0,-19.95637 z m 0,-33.02483 c 2.41145,-0.65767 4.92898,-0.98297 7.44652,-0.98297 9.41951,0 15.00616,7.41821 15.00616,16.36391 0,7.84958 -4.92898,15.5931 -12.05019,15.5931 -3.28128,0 -7.33337,-0.43845 -10.40249,-1.08904 l 0,-29.885 z"
       inkscape:connector-curvature="0" />
    <path
       style="fill:#8e8b78;fill-opacity:1;fill-rule:nonzero;stroke:none"
       id="path5909"
       d="m 321.31571,618.57126 c 2.91354,0 5.28964,2.3761 5.28964,5.28964 0,2.91354 -2.3761,5.28964 -5.28964,5.28964 -2.91354,0 -5.28964,-2.3761 -5.28964,-5.28964 0,-2.91354 2.3761,-5.28964 5.28964,-5.28964 m 4.40568,66.34679 c 0,6.41403 2.50338,7.1707 7.51016,7.28385 l 0,1.93765 -23.83167,0 0,-1.93765 c 5.00677,-0.11315 7.51016,-0.86982 7.51016,-7.28385 l 0,-26.51892 c 0,-7.38994 -2.28417,-7.38994 -3.81165,-7.38994 -1.19513,0 -2.60947,0.43138 -3.69851,0.86983 l -0.76374,-1.85279 14.69501,-5.97559 2.39024,0 0,40.86741 z"
       inkscape:connector-curvature="0" />
    <path
       style="fill:#8e8b78;fill-opacity:1;fill-rule:nonzero;stroke:none"
       id="path5913"
       d="m 378.60778,675.69424 c -1.84572,10.11962 -9.18616,19.95637 -20.17559,19.95637 -12.32599,0 -20.74841,-11.03187 -20.74841,-25.9461 0,-15.67089 11.03895,-25.65612 23.25886,-25.65612 6.42819,0 16.25079,4.21473 16.25079,11.72487 0,2.83575 -2.05079,4.46224 -4.75219,4.46224 -4.42689,0 -5.60786,-2.28416 -6.03923,-6.20188 -0.33237,-4.24301 -2.94891,-6.31502 -7.20608,-6.31502 -9.38416,0 -13.08973,9.469 -13.08973,17.52367 0,9.36293 4.79462,22.20515 15.92549,22.20515 7.8213,0 12.5735,-5.76344 15.05566,-12.51692 l 1.52043,0.76374 z"
       inkscape:connector-curvature="0" />
    <path
       style="fill:#8e8b78;fill-opacity:1;fill-rule:nonzero;stroke:none"
       id="path5917"
       d="m 409.10094,645.56096 0,3.88944 -11.42789,0 0,29.93455 c 0,4.46225 0,9.35587 5.11992,9.35587 2.39024,0 4.89362,-2.06493 5.65737,-4.3491 l 2.17808,0 c -1.95886,5.325 -6.42111,10.39542 -12.51692,10.39542 -3.48636,0 -9.2498,-2.26295 -9.2498,-11.59761 l 0,-33.73913 -7.61623,0 0,-2.16394 c 5.98266,-2.48924 10.77021,-7.70816 14.79401,-17.72169 l 1.63357,0 0,15.99619 11.42789,0 z"
       inkscape:connector-curvature="0" />
    <path
       style="fill:#8e8b78;fill-opacity:1;fill-rule:nonzero;stroke:none"
       id="path5921"
       d="m 454.95673,681.34233 c 0,7.39701 2.28416,7.39701 3.81165,7.39701 1.19512,0 2.60946,-0.43137 3.6985,-0.86982 l 0.76375,1.84572 -14.69502,5.94024 -2.39731,0 0,-10.28935 c -4.78048,5.21186 -9.3488,10.28935 -16.52659,10.28935 -8.0476,0 -12.40377,-6.80299 -12.40377,-15.94671 l 0,-23.71848 c 0,-6.63325 -0.76375,-8.26682 -8.05468,-8.48604 l 0,-1.94472 16.8731,0 0,33.82394 c 0,6.09581 2.60946,9.79432 8.15368,9.79432 4.45518,0 9.0235,-3.91773 11.95826,-6.96563 l 0,-26.22187 c 0,-6.63325 -0.75667,-8.26682 -8.04053,-8.48604 l 0,-1.94472 16.85896,0 0,35.7828 z"
       inkscape:connector-curvature="0" />
    <path
       style="fill:#8e8b78;fill-opacity:1;fill-rule:nonzero;stroke:none"
       id="path5925"
       d="m 478.96224,654.5208 0.21922,0 c 2.3973,-3.91065 6.52718,-10.45197 12.2977,-10.45197 3.26006,0 6.85249,2.3973 6.85249,5.91901 0,2.48217 -2.06494,4.85826 -4.68148,4.85826 -3.47928,0 -5.33206,-3.56414 -7.7223,-3.47928 -2.50338,0 -5.98974,6.08167 -6.96563,8.14661 l 0,20.41603 c 0,8.7972 0,12.26942 9.03057,12.26942 l 0,1.94471 -25.35208,0 0,-1.94471 c 5.00677,-0.10608 7.50308,-0.86982 7.50308,-7.2768 l 0,-26.49062 c 0,-7.38994 -2.28416,-7.38994 -3.80457,-7.38994 -1.19513,0 -2.60947,0.43844 -3.69851,0.86983 l -0.76375,-1.84572 14.68794,-5.9968 2.39732,0 0,10.45197 z"
       inkscape:connector-curvature="0" />
    <path
       style="fill:#8e8b78;fill-opacity:1;fill-rule:nonzero;stroke:none"
       id="path5929"
       d="m 540.30285,663.91343 c 0,-11.73195 -7.34044,-19.86441 -18.53496,-19.86441 -15.4729,0 -22.48804,12.5947 -22.48804,26.62497 0,14.92838 9.29931,24.97728 21.17978,24.97728 10.98943,0 18.00457,-9.17908 19.84322,-19.20677 l -1.61943,-1.08904 c -2.48216,7.08585 -6.6969,11.66125 -14.51821,11.66125 -11.88048,0 -17.54492,-12.20577 -17.54492,-23.10328 l 33.68256,0 z m -33.57649,-3.23884 c 0.43845,-6.31503 5.01385,-12.73613 11.4491,-12.73613 7.73645,0 11.11673,5.98266 11.11673,12.73613 l -22.56583,0 z"
       inkscape:connector-curvature="0" />
    <path
       style="fill:#8e8b78;fill-opacity:1;fill-rule:nonzero;stroke:none"
       id="path5933"
       d="m 577.21221,660.66413 -1.94473,0 c -1.64063,-7.28386 -4.58954,-13.37966 -13.12509,-13.37966 -3.90358,0 -8.25268,2.17809 -8.25268,6.64033 0,11.85218 26.78056,10.32469 26.78056,27.18364 0,8.91744 -8.3234,14.54651 -16.60438,14.54651 -3.16105,0 -6.6474,-0.75667 -9.80138,-1.61942 -0.65767,-0.21922 -1.96594,-0.54452 -2.72969,-0.54452 -0.97589,0 -1.73963,0.54452 -1.95886,1.51335 l -1.94472,0 0,-17.48834 1.94472,0 c 0.98297,7.61623 6.78177,14.90009 14.95667,14.90009 4.45518,0 8.35876,-2.60946 8.35876,-7.39701 0,-12.72201 -25.26015,-10.98236 -25.26015,-26.4199 0,-8.91742 6.37161,-14.55357 15.05567,-14.55357 2.28417,0 4.01673,0.54452 6.24433,1.10319 1.30826,0.33237 2.72967,0.89103 4.04501,0.89103 1.41434,0 1.85279,-0.89103 2.29123,-1.99422 l 1.94473,0 0,16.6185 z"
       inkscape:connector-curvature="0" />
    <path
       style="fill:#15569b;fill-opacity:1;fill-rule:nonzero;stroke:none"
       id="path5845"
       d="m 1.793728,734.25989 c 81.96097,0 137.827382,-54.19042 137.827382,-119.9572 0,-24.62365 -10.05596,-49.35338 -24.48222,-69.13292 -0.39601,-0.53745 -115.367672,128.49982 -125.550912,139.96304 -10.8197,12.17746 -25.85413,30.71238 -25.9602,26.16528 -0.1768,-7.70108 5.00676,-8.76184 13.71909,-22.68601 1.5982,-2.55288 -0.25458,-7.43235 1.43555,-10.07717 12.46033,-19.45424 24.76509,-40.12481 22.92645,-41.81494 -5.53007,-5.06334 -43.653592,51.24152 -47.790538,48.36333 -5.65735,-3.92479 12.771488,-19.69467 12.644198,-23.08909 -0.0707,-1.874 -2.75089,-3.748 -3.03376,-5.53006 -1.15268,-7.19899 19.89976,-24.69437 18.3157,-23.94477 -1.56992,0.73546 19.02994,-22.488 24.29128,-26.43401 3.51463,-2.64481 11.10963,-4.29252 9.7943,-3.65606 -1.37191,0.65059 21.0383,-13.13922 19.85733,-12.55934 -4.50468,2.19223 15.55066,-22.79915 13.13921,-24.2347 -3.21055,-1.90936 -29.71527,29.22025 -32.43081,30.37294 -6.1948,2.63067 25.69148,-42.47969 26.09457,-43.34951 19.46131,-42.19681 -33.31477,22.88401 -36.51825,20.03412 -14.05146,-12.48862 52.52857,-42.46554 27.84128,-58.51122 -13.35844,-8.67697 2.08615,-19.07944 -3.33077,-20.39478 -12.09968,-2.94889 -17.14887,-3.09033 -30.72653,-3.09033 -81.953898,0 -139.913528,56.87059 -139.913528,122.64445 0,65.76678 59.8902,120.91895 141.851178,120.91895"
       inkscape:connector-curvature="0" />
    <path
       style="fill:#fcd213;fill-opacity:1;fill-rule:nonzero;stroke:none"
       id="path5849"
       d="m 25.012188,585.22168 c 2.33366,-3.53585 7.19899,-8.63454 13.88175,-16.61849 5.07748,-4.63196 10.81262,-10.32468 11.77437,-12.82806 2.87818,-6.0463 -11.22985,2.30537 -3.86114,-6.1453 0.29701,-1.10319 2.36901,-0.0778 3.21055,-1.4497 2.93475,-1.55578 11.60465,-19.45424 14.54648,-21.87276 6.90905,-7.48893 -5.65029,13.53523 -2.77211,15.26072 0.86275,1.72549 2.46802,-2.36902 7.22728,-5.82708 0,0 0.16972,-1.20926 0.86274,-1.72549 0.51624,0 0.51624,1.55577 0.51624,0.51623 l 3.28127,-4.14401 c 0.69302,-1.03247 6.56253,-8.28803 6.56253,-8.28803 1.72549,-1.90229 4.83704,-3.9743 6.73933,-6.73933 0,0 8.98105,-6.73225 8.98105,-8.98105 l 4.660252,-4.14402 c 1.20926,-0.5233 3.80458,-4.14401 5.70686,-4.14401 l -0.34651,-0.52331 c 1.03247,0.69303 7.47478,-7.43235 9.49729,-9.49729 -0.61524,-1.82449 0.24751,1.73964 0.67888,1.73964 0.43137,0 0.96882,-0.10607 3.98844,-7.95566 l 0.33944,0.33944 c 0,0 2.07908,-2.93475 2.41852,-4.83704 0,0 0.52331,-0.86274 1.38605,-1.72549 1.37898,-0.16972 1.23755,-9.75894 2.44681,-12.00067 0.52331,-1.67599 0.24751,3.46513 2.87818,2.2983 1.68306,-0.74253 6.50596,-7.27678 7.11413,-9.29928 0.68595,-3.62778 -0.17679,-6.73226 2.75796,-9.15078 1.06783,-1.28705 2.36195,2.27709 6.35746,-2.46802 5.3957,-7.12827 12.84927,-9.61044 8.63454,-14.24947 -0.68596,-1.21633 1.61942,-3.98844 3.35198,-5.83415 0.86275,-1.1739 0.43138,-4.05208 1.15269,-6.49889 1.72549,-3.45806 -9.56801,0.0283 -11.87338,2.33366 -3.01961,3.88943 -23.31539,29.26268 -29.18489,34.43209 -7.17778,8.16074 -14.94957,16.82357 -22.926452,22.84866 -5.18355,4.3208 1.96593,7.05048 1.40727,7.71522 -2.95597,0.63645 -8.91741,5.3462 -10.81262,7.31921 l -1.20926,3.62778 c -0.16973,-0.16972 -0.33945,0.86274 -0.33945,0.86274 -1.73256,3.28127 -6.73932,3.9743 -7.08584,8.81134 l -3.54999,3.88236 -4.73804,5.96144 c -1.38605,1.90228 -3.68435,-0.54452 -5.04919,2.99133 -1.1739,3.03375 -5.33206,5.48056 -5.33206,5.48056 -2.94182,2.07201 2.72968,-7.72936 2.72968,-7.72936 -0.52331,-0.17679 -2.68018,-0.3748 -7.20606,4.2713 -0.69303,2.24173 -10.71362,13.55644 -10.71362,13.20993 -2.07201,1.38605 2.87818,1.32948 1.15268,2.87818 l -1.91643,-0.0141 c -1.37898,3.45806 -0.96175,-0.7001 -2.34073,2.92061 -0.51623,-0.16972 -2.65896,5.20477 -3.34491,5.55128 -2.53167,-1.26583 -23.52754,28.50601 -27.64327,26.52594 -1.37898,0 25.88949,-32.74196 25.71269,-33.25819 0.43138,-1.08197 1.29413,-1.3012 1.29413,-1.3012 l 1.21633,-0.7991 c 2.41852,-3.7975 2.99133,-5.09162 6.44231,-8.54968 1.7255,-1.55577 2.07201,-5.06334 4.32081,-5.75636 0,0 6.68275,-3.82579 6.51303,-4.68854 1.89522,-0.17679 7.35457,-11.442 9.42658,-10.74897 0,0 3.87529,-2.38317 5.94729,-8.42947 0,0 2.93476,-2.93475 2.93476,-4.83704 -0.34651,-3.10447 -2.43267,-1.06075 -1.90936,-4.00258 0,0 2.80039,-3.76921 4.01672,-4.46224 0,0 7.32628,-10.33175 8.47897,-8.88912 1.15269,1.43555 0.59402,4.0733 0.59402,4.0733 2.01544,0.86274 5.33206,-5.05627 7.18485,-5.80587 0,0 2.05786,-5.65736 5.94729,-8.03345 l 1.24462,-2.90646 c 0.69303,-2.75797 -7.31213,4.03086 -8.35167,3.16812 -1.29412,-2.30538 -9.94988,5.78464 -14.78692,13.04021 -2.59531,5.18355 -1.89522,-4.89362 -5.523,-1.60528 0,0 -13.35136,11.53394 -12.88463,16.46998 -1.03954,1.37898 -3.01254,3.62071 -2.66603,5.17649 -2.41852,3.10447 -3.45806,7.42528 -7.08584,7.42528 l -15.15465,15.15464 -7.99102,9.28514 c -0.51623,1.03954 -5.8695,2.07201 -6.90904,2.59531 -2.24173,4.83704 -5.86951,3.36613 -8.46483,7.68694 l -5.31084,4.94312 c -1.55577,4.3208 -3.14691,6.27966 -4.18644,5.0704 0.34651,1.90229 -3.9743,2.07201 -3.79751,5.01384 l -0.34651,-0.52331 c -1.03954,0.69303 0.51623,2.59531 -1.20926,1.38605 -2.41852,2.07201 -5.18355,3.62778 -7.08584,6.90905 -0.16972,-0.17679 -0.51623,-0.34651 -0.51623,-0.69303 l -4.14402,4.49053 c -5.87658,4.49053 -8.63454,11.39958 -13.64837,14.85764 -2.07201,5.69979 -9.525581,10.56511 -14.016108,15.74867 -4.17937,4.46224 -8.13952,8.30924 -5.33913,9.70944 3.23884,-1.93765 7.559642,-8.20317 8.528465,-7.22728 0.912249,-0.33237 -0.968823,2.58825 0.113147,2.80747 -0.579879,2.07908 -0.219222,4.63903 2.913536,2.26294 3.13277,-2.37609 7.55258,-7.87787 8.74769,-9.28514 3.62071,-1.20926 1.0254,2.9489 1.93765,2.37609 l 1.40727,0.43138 c 1.72549,-0.68596 6.15237,-5.28963 9.49729,-8.85377 6.69689,-7.77179 4.86532,-1.9235 6.93733,-3.82579 l 1.20926,-0.69302 c 8.46482,2.94182 10.19032,-10.19032 17.96918,-9.67409 -1.73256,6.91612 -12.50983,15.60017 -10.78433,18.61978 0.86274,1.874 9.80137,-4.72389 10.14788,-5.0704 3.30956,-1.7255 7.01512,-5.83415 13.71202,-8.74769 0,0 1.52042,3.95308 3.71971,2.87818"
       inkscape:connector-curvature="0" />
    <path
       style="fill:#fcd213;fill-opacity:1;fill-rule:nonzero;stroke:none"
       id="path5853"
       d="m 61.695968,580.65485 c -2.41852,2.12151 -2.99132,-1.95179 -2.99132,-1.95179 l -8.64162,14.03732 -18.99458,26.77344 c 0,0 -24.81458,31.98529 -23.78211,33.39963 2.2983,3.16812 12.0926,-9.78723 10.07716,-3.45099 -0.43844,1.37191 -11.50565,11.45615 -13.50694,12.67956 -2.00129,1.2234 -2.07201,1.72549 -2.93475,3.45098 -0.86275,1.73257 -3.12569,4.54003 -4.56125,6.26553 -1.44262,1.72549 -2.52459,3.23884 -2.52459,3.23884 0,0 -2.27002,-2.02958 -5.55129,-0.30409 -1.90228,2.2488 -10.3671,15.26073 -11.80266,13.8181 -1.59113,-1.58406 0,-7.19899 6.90905,-18.1389 -5.18355,-3.74093 -12.95535,10.19738 -12.95535,10.3671 0.16972,-0.34651 -10.28225,1.85986 -10.45197,1.68307 -0.693024,1.03954 -2.637741,2.61653 -2.637741,2.61653 -1.032468,2.58824 -3.578277,2.05079 -4.441027,3.26005 1.03247,1.72549 -3.28834,3.10447 -3.28834,3.62071 l -0.51623,-0.33944 c -0.51624,0.16972 -0.34651,0.68595 -0.34651,1.20926 -0.51624,0 -1.03247,-0.1768 -1.20927,0.34651 -0.68595,2.07201 -2.24172,1.03247 -3.45098,2.58824 0.16972,-0.34651 -0.1768,-0.69303 -0.34652,-0.86275 -0.34651,0.34652 -0.34651,-2.41852 -2.072,-0.34651 l -0.34652,-2.07201 -0.86274,0.69303 c -0.51624,-1.38605 2.93475,-6.90905 4.14401,-9.50436 l 2.05079,-2.26295 2.02958,-1.71135 c -0.34651,-2.41852 1.68306,-1.31533 0.99004,-3.90357 3.11154,-1.03954 2.70139,-1.4497 3.22469,-4.55418 1.548703,0.16972 0.51624,-2.2488 0.86275,-2.07908 -2.2488,-1.03246 2.75796,-1.37898 0.685953,-3.28126 1.386052,-2.93476 4.320807,-3.96722 5.006761,-7.07877 0.523304,0.34651 0.693024,1.03247 1.216334,0.86275 1.37898,-4.14402 1.89521,-10.53683 5.52299,-12.78563 -0.69302,-3.28127 4.14402,-5.00677 4.49053,-7.59501 1.55577,-0.5233 5.69979,-4.14401 7.94859,-6.56253 l 0.34651,0.33944 c 1.89522,-4.83704 4.49053,-9.67408 9.49729,-10.70655 1.7255,1.03247 11.25814,1.65478 11.60466,-0.59402 1.20926,-2.58824 -10.13374,-5.23306 -7.19899,-4.89362 -0.16972,-1.89521 4.40567,-6.25845 5.09162,-8.67697 3.11155,-1.90229 7.11413,-7.67279 10.74191,-7.15656 l 1.44263,3.748 c 0.86274,0.16972 2.41144,1.52042 4.48345,0.31116 l 4.03087,-4.06623 c -1.20926,0.34651 -2.18516,-2.87111 -7.397,-0.60816 0,-2.41853 -0.98296,-4.08745 0.7496,-6.33625 l 1.32948,-1.08904 c 1.20219,-2.76503 5.86244,-2.2488 6.72519,-4.66732 l 1.19511,7.23435 9.57508,-3.59949 c 7.29799,-5.56543 3.75507,-12.31183 12.26233,-20.33113 l 3.74092,-0.86275 c 3.11155,-2.58824 4.89362,-7.06463 8.86791,-7.92737 2.41852,-2.76504 7.8708,-9.93574 11.15207,-8.72648 -0.17679,1.37898 -16.41341,22.74258 -14.24947,27.34625 2.93475,-2.76503 27.05631,-36.80111 31.55391,-34.55231 2.24173,3.28127 -10.14788,14.72328 -10.66412,17.48831 8.81134,-5.87658 -9.63872,11.7673 -9.63872,11.7673 0,0 0.12022,2.41852 -2.18516,4.43396"
       inkscape:connector-curvature="0" />
    <path
       style="fill:#fcd213;fill-opacity:1;fill-rule:nonzero;stroke:none"
       id="path5857"
       d="m 38.945598,485.03348 c -2.01543,2.44681 16.32148,-18.75414 18.22377,-19.10065 0,0 1.88814,-3.33077 4.37738,-5.27549 2.48216,-1.94472 -1.27291,6.30795 -1.09612,6.48475 4.1228,2.6731 6.66154,-10.91163 9.94281,-13.66959 2.76503,-0.52331 5.33206,-4.88655 5.33206,-4.88655 2.24173,-2.41852 0.67888,-2.86403 3.62071,-5.28255 0,0.34651 1.04661,-1.94472 1.56992,-1.76793 3.6207,-5.01383 2.95597,-2.36902 7.48185,-7.19899 3.78336,-2.51045 0.24751,1.62649 0.0707,3.52171 -1.90229,2.2488 -3.33784,6.90905 -3.86115,6.56253 -2.01543,4.89362 -2.53167,8.4719 -4.77339,8.98813 0.69302,3.97429 0.70009,0.11315 -4.32081,5.75636 -3.73386,6.01095 -4.53296,7.08584 -8.56383,11.69659 -1.20926,3.7975 -2.43266,2.98426 -4.68146,7.30506 l -7.30506,6.78883 c -2.2488,2.93476 -2.84283,0.82739 -9.61044,11.27229 -2.09322,3.22469 -8.42239,12.94828 -11.01063,12.19868 -0.9759,1.18804 -11.76731,17.163 -12.73613,15.86888 -5.01383,-6.68982 -12.26939,19.08651 -18.14597,15.11222 3.23883,-10.90456 -7.55258,5.50885 -12.30476,1.61942 l 3.02669,-5.18356 c -0.17679,-1.03246 4.6461,-4.44809 4.6461,-4.44809 -0.099,0.14143 2.81454,-1.78207 2.68018,-1.70428 0,0 3.32369,-5.96144 5.04919,-7.79301 0,0.51623 2.41852,-0.86275 2.41852,-0.86275 -0.34651,-3.9743 4.66025,-6.39281 5.35327,-6.22309 2.07201,-1.37898 0.69303,-4.31374 3.79751,-4.14402 l 0.86981,-0.69302 c 0.68596,-3.7975 6.99391,-9.68116 6.99391,-9.68116 0,0 14.97079,-17.70753 12.95535,-15.26072"
       inkscape:connector-curvature="0" />
    <path
       style="fill:#fcd213;fill-opacity:1;fill-rule:nonzero;stroke:none"
       id="path5861"
       d="m 73.492208,575.14246 c 10.07717,-13.13922 12.53105,-20.48671 22.37485,-26.87245 2.93475,-6.2231 8.811332,-9.50436 13.648372,-14.51112 0.33945,-0.69303 10.61462,-13.02607 12.34012,-10.8692 1.73256,2.15686 -8.54261,15.52944 -8.54261,15.52944 l -0.51624,0 c 0.16972,2.59532 -1.90228,1.73257 -2.94182,5.35328 l -0.33945,-0.51624 c -0.34651,2.41853 -2.41852,2.07201 -3.28834,3.80458 0.1768,-0.34652 -0.16972,-0.52331 -0.51623,-0.86982 -2.93475,2.59531 -5.52299,8.11831 -8.288032,10.36711 l -2.41852,4.14401 c 2.58824,0.69303 3.76922,0.66474 3.25298,2.39024 -1.20926,2.072 -3.45806,1.95886 -5.18355,5.75636 l -2.23466,5.36742 c 0,0 -1.94472,4.41273 -2.92061,4.79461 -0.96882,0.38187 -0.86275,-0.86275 -0.86275,-0.86275 -1.03246,3.28127 -5.81293,-0.34651 -6.15944,3.28127 -1.55578,0.16972 -3.36613,7.1707 -5.09163,8.72647 0.16972,-0.34651 -3.45806,2.87818 -3.45806,2.87818 l -1.43555,3.16812 c -1.38605,1.7255 -1.5487,-1.25876 -4.03087,3.16812 -2.59531,0.16972 -1.84571,2.77918 -3.22469,1.05369 -1.90229,2.93475 -12.19161,9.71651 -15.47288,10.23981 -1.38605,-4.83704 7.26264,-20.25334 10.37418,-23.87405 l 14.93543,-11.64708 z"
       inkscape:connector-curvature="0" />
  </g>
</svg>
